PathFileType	4	(X/Y/Z)	F:\MotionCapture\20160217\3\Generated_files\EMG_Fprce_test07-Dynamic.trc
DataRate	CameraRate	NumFrames	NumMarkers	Units	OrigDataRate	OrigDataStartFrame	OrigNumFrames
120.00	120.00	       4	39	mm	120.00	564	       751
Frame#	Time	Top.Head			Front.Head			Rear.Head			R.Shoulder			R.Offset			R.Elbow			R.Wrist			L.Shoulder			L.Elbow			L.Wrist			R.ASIS			L.ASIS			V.Sacral			R.Thigh			R.Knee			R.Shank			R.Ankle			R.Heel			R.Toe			L.Thigh			L.Knee			L.Shank			L.Ankle			L.Heel			L.Toe			R1			R2			R3			R4			R5			R6			R7			L1			L2			L3			L4			L5			L6			L7			V_Mid_ASIS			V_Pelvis_Origin			V_R.Hip_JC			V_L.Hip_JC			V_R.Knee_JC			V_L.Knee_JC			V_R.Ankle_JC			V_L.Ankle_JC			V_Mid_Hip			V_Mid_Shoulder			V_R.Hand			V_L.Hand			V_R.Toe_Offset_Static			V_L.Toe_Offset_Static			V_R.Toe_Offset			V_L.Toe_Offset			
		X1	Y1	Z1	X2	Y2	Z2	X3	Y3	Z3	X4	Y4	Z4	X5	Y5	Z5	X6	Y6	Z6	X7	Y7	Z7	X8	Y8	Z8	X9	Y9	Z9	X10	Y10	Z10	X11	Y11	Z11	X12	Y12	Z12	X13	Y13	Z13	X14	Y14	Z14	X15	Y15	Z15	X16	Y16	Z16	X17	Y17	Z17	X18	Y18	Z18	X19	Y19	Z19	X20	Y20	Z20	X21	Y21	Z21	X22	Y22	Z22	X23	Y23	Z23	X24	Y24	Z24	X25	Y25	Z25	X26	Y26	Z26	X27	Y27	Z27	X28	Y28	Z28	X29	Y29	Z29	X30	Y30	Z30	X31	Y31	Z31	X32	Y32	Z32	X33	Y33	Z33	X34	Y34	Z34	X35	Y35	Z35	X36	Y36	Z36	X37	Y37	Z37	X38	Y38	Z38	X39	Y39	Z39	

564	4.692	-2521.31909	283.75333	1679.06580	-2623.16162	241.18459	1593.94958	-2412.26880	312.32651	1612.54358	-2446.01392	474.33817	1369.87219	-2331.27148	192.75922	1227.19446	-2334.31958	548.08008	1062.09900	-2343.46729	576.87982	801.00366	-2488.91699	69.37064	1383.83679	-2581.86353	-38.05011	1075.83423	-2825.48901	8.12167	1002.79736	-2565.74243	400.01813	917.56073	-2544.55859	112.43305	887.59064	-2331.88599	277.83408	888.65417	-2713.85767	361.71518	594.66907	-2695.82959	398.64786	470.46768	-2712.76660	321.94733	235.93164	-2676.71582	392.81528	68.01736	-2609.79126	331.67740	40.19094	-2821.86401	377.69427	39.03714	-2541.53027	129.69302	555.17456	-2392.63965	88.19871	418.76740	-2312.57251	161.37363	297.49680	-2053.15527	133.51009	182.46088	-2019.46863	195.89758	228.83675	-2094.46045	144.83046	48.99204	-2868.07568	357.71375	37.32072	-2828.51758	339.50095	42.66975	-2729.95410	303.00967	48.97774	-2655.36792	300.89206	36.71111	-2639.36255	374.09140	39.44833	-2714.28589	403.55188	34.61354	-2780.69800	419.98416	35.02868	-2124.65161	170.61351	32.55661	-2109.87256	182.59546	48.59936	-2090.72534	215.10405	129.42230	-2047.38086	222.61836	196.67305	-2019.77734	154.85521	202.10669	-2037.53345	124.15769	125.76291	-2064.06030	118.01328	68.94891																																																	-2892.25244	327.65045	69.82605	-2734.19995	453.65164	-29.49219	
565	4.700	-2533.35449	285.11084	1681.30005	-2635.03857	241.83086	1596.65210	-2424.62036	314.26590	1614.85291	-2458.69434	475.73737	1372.61401	-2343.33569	193.82951	1229.83130	-2351.02710	549.77472	1062.76624	-2367.13599	578.99390	802.53522	-2501.24292	70.33382	1386.34583	-2589.81543	-36.68622	1076.52344	-2831.81250	7.28629	996.89136	-2577.50391	402.22638	919.60083	-2557.20825	114.64416	890.02582	-2343.26733	278.24432	890.39368	-2722.78564	362.39044	594.77094	-2702.49292	400.10916	470.09720	-2716.23877	322.77814	235.75842	-2675.95190	393.76834	68.09585	-2609.92041	331.38068	40.14673	-2822.12012	377.87509	38.96728	-2560.93115	129.24074	557.67969	-2416.78931	88.06427	417.85538	-2333.62183	162.29063	299.12262	-2072.57227	132.92361	192.61981	-2042.31250	197.49030	240.31175	-2102.68311	144.86766	54.30550	-2868.93945	357.36224	37.24757	-2828.78613	339.01108	42.51474	-2730.07422	302.63104	49.15416	-2655.43091	300.91840	36.64896	-2639.26953	374.02313	39.53711	-2713.74512	402.77200	34.88427	-2780.78955	420.06018	34.86171	-2130.48071	169.14716	32.63255	-2118.35815	181.47667	51.63505	-2106.08081	215.45941	135.91087	-2068.10010	224.01521	206.60320	-2039.66357	156.24174	213.81381	-2052.28418	124.64232	136.89192	-2074.27515	117.74087	78.74000																																																	-2830.30566	385.19278	17.76802	
566	4.708	-2545.32080	286.64587	1684.12085	-2646.73218	242.47772	1599.25684	-2436.58521	315.73175	1617.21509	-2470.78369	476.49017	1375.30103	-2355.38477	195.12866	1232.49219	-2367.81177	550.95477	1063.91516	-2388.70752	577.35144	803.12549	-2513.09863	71.43033	1388.80444	-2597.19043	-35.32710	1077.94348	-2837.51660	5.96233	990.68561	-2589.33350	404.59579	921.81226	-2569.55518	116.58994	892.65424	-2355.44043	279.65417	892.44843	-2730.76221	363.06137	595.00586	-2708.39307	401.46237	470.01981	-2719.28027	323.51041	235.21950	-2677.02881	391.97913	68.40570	-2609.78442	331.12961	40.25525	-2822.11548	378.26926	38.42344	-2579.75366	130.00433	560.59131	-2440.39868	89.12774	417.06039	-2355.17212	163.40793	300.95630	-2091.30786	134.06595	200.22353	-2066.67651	199.13831	251.05518	-2112.62744	145.23276	60.28840	-2868.71167	358.25598	36.85091	-2828.69531	339.61990	42.42380	-2730.09937	302.66638	48.90423	-2655.51904	301.17249	37.33078	-2639.20874	373.92139	39.60370	-2713.88086	402.45587	35.04220	-2780.60474	420.42224	34.73485	-2137.71924	166.77466	32.47532	-2128.56079	180.56834	55.22182	-2122.47095	216.24054	141.60576	-2090.21069	225.86234	216.34834	-2062.27466	158.05566	225.56183	-2068.04810	126.29582	147.83154	-2086.63599	117.77008	88.64727																																																	-2038.71130	164.22375	228.66275	-2831.20776	385.48907	18.10657	
567	4.717	-2557.24365	287.51300	1686.51575	-2658.18994	243.06728	1602.08179	-2448.52881	317.16620	1620.36194	-2483.67847	477.11359	1379.00830	-2367.32617	195.62709	1235.04993	-2385.70435	552.58356	1064.96338	-2412.21460	577.96198	805.33771	-2524.81372	72.34991	1391.77307	-2604.65479	-34.36707	1079.27637	-2842.57715	5.25941	984.30066	-2601.06152	406.05392	924.12982	-2581.66357	118.13880	895.67249	-2366.09106	280.70993	895.66943	-2737.92847	364.07553	594.23322	-2713.72876	403.40131	469.96988	-2721.74902	324.74191	234.34830	-2676.94141	391.98291	68.34824	-2610.09521	329.61597	41.67545	-2822.15820	378.44540	38.28182	-2598.82202	131.98984	564.18457	-2464.12769	89.21846	417.88843	-2377.82813	164.42569	303.32996	-2111.63135	135.28662	208.87889	-2091.63989	201.23225	259.69540	-2125.11768	143.54601	66.75030	-2868.63647	358.68893	36.63169	-2828.59058	339.74298	42.36459	-2730.11206	302.66437	48.90577	-2655.69189	301.56918	36.45778	-2639.09131	373.94199	39.60182	-2713.79077	402.59332	34.99726	-2780.52100	420.61063	34.69554	-2147.98877	164.11784	32.91896	-2141.19238	179.13130	59.70128	-2141.25684	216.91022	147.06554	-2113.48120	227.55815	223.57193	-2084.35767	160.74290	234.77444	-2086.16309	128.33484	158.37877	-2100.41577	118.07628	97.85342																																																	-2058.63354	168.85320	234.98433	-2831.47852	385.66864	18.19325	
